<svg width="136" height="210" viewBox="0 0 136 210" fill="none" xmlns="http://www.w3.org/2000/svg">
<path d="M130.2 93.0603L130.41 91.8003" stroke="#BCB7B8" stroke-width="0.84" stroke-linecap="round" stroke-linejoin="round"/>
<path d="M135.21 40.29L66.1504 0.419998L61.4105 3.18001V50.76" stroke="#BCB7B8" stroke-width="0.84" stroke-linecap="round" stroke-linejoin="round"/>
<path d="M129.45 95.6101L129.87 94.3201" stroke="#BCB7B8" stroke-width="0.84" stroke-linecap="round" stroke-linejoin="round"/>
<path d="M130.47 104.91V174.21L135.21 171.48" stroke="#BCB7B8" stroke-width="0.84" stroke-linecap="round" stroke-linejoin="round"/>
<path d="M130.47 90.6301V43.0501" stroke="#BCB7B8" stroke-width="0.84" stroke-linecap="round" stroke-linejoin="round"/>
<path d="M135.21 40.2902V171.48" stroke="#BCB7B8" stroke-width="0.84" stroke-linecap="round" stroke-linejoin="round"/>
<path d="M74.25 131.88L73.02 132.78" stroke="#BCB7B8" stroke-width="0.84" stroke-linecap="round" stroke-linejoin="round"/>
<path d="M129.87 94.3201L130.2 93.0601" stroke="#BCB7B8" stroke-width="0.84" stroke-linecap="round" stroke-linejoin="round"/>
<path d="M130.47 43.05L135.21 40.2901" stroke="#BCB7B8" stroke-width="0.84" stroke-linecap="round" stroke-linejoin="round"/>
<path d="M128.22 98.1301L128.88 96.9001L129.45 95.6101" stroke="#BCB7B8" stroke-width="0.84" stroke-linecap="round" stroke-linejoin="round"/>
<path d="M123.84 103.17L124.8 102.39" stroke="#BCB7B8" stroke-width="0.84" stroke-linecap="round" stroke-linejoin="round"/>
<path d="M126.66 100.44L127.47 99.3302L128.22 98.1302" stroke="#BCB7B8" stroke-width="0.84" stroke-linecap="round" stroke-linejoin="round"/>
<path d="M124.8 102.39L125.76 101.46" stroke="#BCB7B8" stroke-width="0.84" stroke-linecap="round" stroke-linejoin="round"/>
<path d="M74.2503 131.88L122.85 103.83L123.84 103.17" stroke="#BCB7B8" stroke-width="0.84" stroke-linecap="round" stroke-linejoin="round"/>
<path d="M125.76 101.46L126.66 100.44" stroke="#BCB7B8" stroke-width="0.84" stroke-linecap="round" stroke-linejoin="round"/>
<path d="M0.42041 169.56L0.42041 100.26" stroke="#BCB7B8" stroke-width="0.84" stroke-linecap="round" stroke-linejoin="round"/>
<path d="M53.7901 63.9602L54.7802 63.3002L55.7402 62.5202L56.7001 61.5902L57.6001 60.5702L58.4102 59.4602L59.1602 58.2602L59.8201 57.0302L60.3902 55.7402L60.8102 54.4502L61.1402 53.1902L61.3201 51.9302L61.4102 50.7602" stroke="#BCB7B8" stroke-width="0.84" stroke-linecap="round" stroke-linejoin="round"/>
<path d="M53.79 63.9602L5.19005 92.0102L3.96004 92.9102L2.82004 94.1102L1.83005 95.5502L1.08005 97.1402L0.600037 98.7302" stroke="#BCB7B8" stroke-width="0.84" stroke-linecap="round" stroke-linejoin="round"/>
<path d="M130.47 174.21L74.2502 141.78" stroke="#BCB7B8" stroke-width="0.84" stroke-linecap="round" stroke-linejoin="round"/>
<path d="M130.47 43.05L61.4102 3.18005" stroke="#BCB7B8" stroke-width="0.84" stroke-linecap="round" stroke-linejoin="round"/>
<path d="M130.41 91.8L130.47 90.6301" stroke="#BCB7B8" stroke-width="0.84" stroke-linecap="round" stroke-linejoin="round"/>
<path d="M73.02 132.78L71.88 133.98L70.89 135.42L70.14 137.01L69.66 138.6L69.51 140.13V209.43L74.25 206.67V141.78V137.37" stroke="#BCB7B8" stroke-width="0.84" stroke-linecap="round" stroke-linejoin="round"/>
<path d="M69.5103 209.43L0.420258 169.56" stroke="#BCB7B8" stroke-width="0.84" stroke-linecap="round" stroke-linejoin="round"/>
<path d="M0.420105 100.26L0.600098 98.73" stroke="#BCB7B8" stroke-width="0.84" stroke-linecap="round" stroke-linejoin="round"/>
<path d="M130.47 104.91L74.2502 137.37" stroke="#BCB7B8" stroke-width="0.84" stroke-linecap="round" stroke-linejoin="round"/>
</svg>
