<svg width="58" height="39" viewBox="0 0 58 39" fill="none" xmlns="http://www.w3.org/2000/svg">
<path d="M40.6769 28.3965C40.6769 28.3965 36.9445 38.1942 27.6133 38.1942C18.7486 38.6608 14.5496 29.3296 14.5496 29.3296C14.5496 29.3296 4.75181 33.5286 1.0193 24.1974C-1.40682 18.1321 4.97063 12.0668 8.01768 12.0668C8.01768 12.0668 9.15931 6.46812 14.5496 5.06845C19.9398 3.66877 24.5303 6.38562 24.3473 6.93469C24.1646 7.48281 27.6132 -1.46339 36.0113 0.869396C43.4763 2.94301 43.4763 11.1337 43.4763 11.1337C43.4763 11.1337 57.9396 8.80092 56.5399 22.3312C53.7406 34.9283 40.6769 28.3965 40.6769 28.3965Z" fill="#F6F5F2" stroke="#392D2B" stroke-width="0.96"/>
</svg>
