<svg width="229" height="180" viewBox="0 0 229 180" fill="none" xmlns="http://www.w3.org/2000/svg">
<path d="M76.9302 154.593V153.927" stroke="#BCB7B8" stroke-width="0.310739" stroke-linecap="round" stroke-linejoin="round"/>
<path d="M35.9346 130.932L41.1284 133.929" stroke="#BCB7B8" stroke-width="0.310739" stroke-linecap="round" stroke-linejoin="round"/>
<path d="M6.50342 113.93L11.6972 116.927" stroke="#BCB7B8" stroke-width="0.310739" stroke-linecap="round" stroke-linejoin="round"/>
<path d="M211.169 56.7542L216.652 59.9282" stroke="#BCB7B8" stroke-width="0.310739" stroke-linecap="round" stroke-linejoin="round"/>
<path d="M222.422 63.2576L228.193 66.5869" stroke="#BCB7B8" stroke-width="0.310739" stroke-linecap="round" stroke-linejoin="round"/>
<path d="M152.24 110.445L152.906 110.068" stroke="#BCB7B8" stroke-width="0.310739" stroke-linecap="round" stroke-linejoin="round"/>
<path d="M152.24 90.7803L152.906 90.403" stroke="#BCB7B8" stroke-width="0.310739" stroke-linecap="round" stroke-linejoin="round"/>
<path d="M228.193 67.2529V66.5871" stroke="#BCB7B8" stroke-width="0.310739" stroke-linecap="round" stroke-linejoin="round"/>
<path d="M152.906 90.403V110.068" stroke="#BCB7B8" stroke-width="0.310739" stroke-linecap="round" stroke-linejoin="round"/>
<path d="M152.24 90.78V110.445" stroke="#BCB7B8" stroke-width="0.310739" stroke-linecap="round" stroke-linejoin="round"/>
<path d="M152.906 130.4L152.24 130.777V111.112L152.906 110.734V130.4Z" stroke="#BCB7B8" stroke-width="0.310739" stroke-linecap="round" stroke-linejoin="round"/>
<path d="M228.193 86.9185L228.77 86.5855V46.589L228.193 46.9219" stroke="#BCB7B8" stroke-width="0.310739" stroke-linecap="round" stroke-linejoin="round"/>
<path d="M76.3529 134.594L0.155273 90.5803L0.155273 130.599L76.3529 174.591V134.594Z" stroke="#BCB7B8" stroke-width="0.310739" stroke-linecap="round" stroke-linejoin="round"/>
<path d="M76.3525 174.591L76.9296 174.258" stroke="#BCB7B8" stroke-width="0.310739" stroke-linecap="round" stroke-linejoin="round"/>
<path d="M76.3525 134.594L76.9296 134.261" stroke="#BCB7B8" stroke-width="0.310739" stroke-linecap="round" stroke-linejoin="round"/>
<path d="M70.5819 151.596V150.93L64.811 147.601V148.267L70.5819 151.596Z" stroke="#BCB7B8" stroke-width="0.310739" stroke-linecap="round" stroke-linejoin="round"/>
<path d="M5.92578 113.598V114.263L11.6967 117.593V116.927" stroke="#BCB7B8" stroke-width="0.310739" stroke-linecap="round" stroke-linejoin="round"/>
<path d="M35.3574 130.599V131.265L41.1283 134.594V133.928" stroke="#BCB7B8" stroke-width="0.310739" stroke-linecap="round" stroke-linejoin="round"/>
<path d="M5.92578 114.263L6.50287 113.93" stroke="#BCB7B8" stroke-width="0.310739" stroke-linecap="round" stroke-linejoin="round"/>
<path d="M35.3574 131.265L35.9345 130.932" stroke="#BCB7B8" stroke-width="0.310739" stroke-linecap="round" stroke-linejoin="round"/>
<path d="M0.310239 88.5607L0.243652 88.6938" stroke="#BCB7B8" stroke-width="0.310739" stroke-linecap="round" stroke-linejoin="round"/>
<path d="M224.154 42.5933H224.398L224.642 42.6155H224.886L225.13 42.6377L225.352 42.6821" stroke="#BCB7B8" stroke-width="0.310739" stroke-linecap="round" stroke-linejoin="round"/>
<path d="M228.371 44.1693L228.482 44.3025L228.549 44.4357L228.615 44.5688" stroke="#BCB7B8" stroke-width="0.310739" stroke-linecap="round" stroke-linejoin="round"/>
<path d="M228.748 44.9683L228.77 45.1237V45.2568" stroke="#BCB7B8" stroke-width="0.310739" stroke-linecap="round" stroke-linejoin="round"/>
<path d="M228.615 44.569L228.682 44.7021" stroke="#BCB7B8" stroke-width="0.310739" stroke-linecap="round" stroke-linejoin="round"/>
<path d="M228.682 44.7019L228.726 44.8351L228.748 44.9683" stroke="#BCB7B8" stroke-width="0.310739" stroke-linecap="round" stroke-linejoin="round"/>
<path d="M228.171 43.9253L228.282 44.0363L228.371 44.1694" stroke="#BCB7B8" stroke-width="0.310739" stroke-linecap="round" stroke-linejoin="round"/>
<path d="M227.905 43.6811L228.038 43.8143L228.171 43.9253" stroke="#BCB7B8" stroke-width="0.310739" stroke-linecap="round" stroke-linejoin="round"/>
<path d="M226.462 42.9486L226.684 43.0151" stroke="#BCB7B8" stroke-width="0.310739" stroke-linecap="round" stroke-linejoin="round"/>
<path d="M227.594 43.4815L227.749 43.5703" stroke="#BCB7B8" stroke-width="0.310739" stroke-linecap="round" stroke-linejoin="round"/>
<path d="M226.262 42.8821L226.462 42.9487" stroke="#BCB7B8" stroke-width="0.310739" stroke-linecap="round" stroke-linejoin="round"/>
<path d="M225.352 42.6822L225.596 42.7266" stroke="#BCB7B8" stroke-width="0.310739" stroke-linecap="round" stroke-linejoin="round"/>
<path d="M227.261 43.2813L227.417 43.3701" stroke="#BCB7B8" stroke-width="0.310739" stroke-linecap="round" stroke-linejoin="round"/>
<path d="M227.749 43.5702L227.904 43.6812" stroke="#BCB7B8" stroke-width="0.310739" stroke-linecap="round" stroke-linejoin="round"/>
<path d="M226.884 43.1041L227.061 43.1929" stroke="#BCB7B8" stroke-width="0.310739" stroke-linecap="round" stroke-linejoin="round"/>
<path d="M225.597 42.7267L225.819 42.771L226.041 42.8154" stroke="#BCB7B8" stroke-width="0.310739" stroke-linecap="round" stroke-linejoin="round"/>
<path d="M227.417 43.3705L227.594 43.4814" stroke="#BCB7B8" stroke-width="0.310739" stroke-linecap="round" stroke-linejoin="round"/>
<path d="M226.684 43.0152L226.884 43.104" stroke="#BCB7B8" stroke-width="0.310739" stroke-linecap="round" stroke-linejoin="round"/>
<path d="M226.041 42.8153L226.262 42.8818" stroke="#BCB7B8" stroke-width="0.310739" stroke-linecap="round" stroke-linejoin="round"/>
<path d="M227.062 43.1929L227.261 43.2817" stroke="#BCB7B8" stroke-width="0.310739" stroke-linecap="round" stroke-linejoin="round"/>
<path d="M0.244055 88.6936L0.199666 88.849L0.177468 88.9822L0.155273 89.1154V89.2485" stroke="#BCB7B8" stroke-width="0.310739" stroke-linecap="round" stroke-linejoin="round"/>
<path d="M2.88504 86.8291L2.66309 86.8735" stroke="#BCB7B8" stroke-width="0.310739" stroke-linecap="round" stroke-linejoin="round"/>
<path d="M0.643469 88.0499L0.554688 88.1831" stroke="#BCB7B8" stroke-width="0.310739" stroke-linecap="round" stroke-linejoin="round"/>
<path d="M3.57325 86.6739L3.3291 86.7183" stroke="#BCB7B8" stroke-width="0.310739" stroke-linecap="round" stroke-linejoin="round"/>
<path d="M2.46366 86.9405L2.2417 87.0293" stroke="#BCB7B8" stroke-width="0.310739" stroke-linecap="round" stroke-linejoin="round"/>
<path d="M0.754534 87.9171L0.643555 88.0503" stroke="#BCB7B8" stroke-width="0.310739" stroke-linecap="round" stroke-linejoin="round"/>
<path d="M2.66314 86.8738L2.46338 86.9404" stroke="#BCB7B8" stroke-width="0.310739" stroke-linecap="round" stroke-linejoin="round"/>
<path d="M4.7715 86.5854H4.52734" stroke="#BCB7B8" stroke-width="0.310739" stroke-linecap="round" stroke-linejoin="round"/>
<path d="M2.04182 87.0958L1.86426 87.1846" stroke="#BCB7B8" stroke-width="0.310739" stroke-linecap="round" stroke-linejoin="round"/>
<path d="M0.44354 88.2941L0.376953 88.4272" stroke="#BCB7B8" stroke-width="0.310739" stroke-linecap="round" stroke-linejoin="round"/>
<path d="M1.50911 87.3622L1.33154 87.4731" stroke="#BCB7B8" stroke-width="0.310739" stroke-linecap="round" stroke-linejoin="round"/>
<path d="M3.10721 86.763L2.88525 86.8296" stroke="#BCB7B8" stroke-width="0.310739" stroke-linecap="round" stroke-linejoin="round"/>
<path d="M3.7952 86.6516L3.57324 86.6738" stroke="#BCB7B8" stroke-width="0.310739" stroke-linecap="round" stroke-linejoin="round"/>
<path d="M4.2837 86.6077L4.03955 86.6299" stroke="#BCB7B8" stroke-width="0.310739" stroke-linecap="round" stroke-linejoin="round"/>
<path d="M1.86431 87.1846L1.66455 87.2734" stroke="#BCB7B8" stroke-width="0.310739" stroke-linecap="round" stroke-linejoin="round"/>
<path d="M2.24175 87.0291L2.04199 87.0957" stroke="#BCB7B8" stroke-width="0.310739" stroke-linecap="round" stroke-linejoin="round"/>
<path d="M1.02087 87.6952L0.887695 87.8062" stroke="#BCB7B8" stroke-width="0.310739" stroke-linecap="round" stroke-linejoin="round"/>
<path d="M3.32889 86.7183L3.10693 86.7627" stroke="#BCB7B8" stroke-width="0.310739" stroke-linecap="round" stroke-linejoin="round"/>
<path d="M0.377134 88.4274L0.310547 88.5605" stroke="#BCB7B8" stroke-width="0.310739" stroke-linecap="round" stroke-linejoin="round"/>
<path d="M0.887569 87.806L0.754395 87.917" stroke="#BCB7B8" stroke-width="0.310739" stroke-linecap="round" stroke-linejoin="round"/>
<path d="M1.17637 87.5839L1.021 87.6948" stroke="#BCB7B8" stroke-width="0.310739" stroke-linecap="round" stroke-linejoin="round"/>
<path d="M4.03956 86.6297L3.79541 86.6519" stroke="#BCB7B8" stroke-width="0.310739" stroke-linecap="round" stroke-linejoin="round"/>
<path d="M1.33164 87.473L1.17627 87.584" stroke="#BCB7B8" stroke-width="0.310739" stroke-linecap="round" stroke-linejoin="round"/>
<path d="M4.52784 86.5852L4.28369 86.6074" stroke="#BCB7B8" stroke-width="0.310739" stroke-linecap="round" stroke-linejoin="round"/>
<path d="M1.66465 87.2735L1.50928 87.3623" stroke="#BCB7B8" stroke-width="0.310739" stroke-linecap="round" stroke-linejoin="round"/>
<path d="M0.554339 88.1835L0.443359 88.2944" stroke="#BCB7B8" stroke-width="0.310739" stroke-linecap="round" stroke-linejoin="round"/>
<path d="M228.77 46.5885V45.9226L76.3525 133.928V134.594" stroke="#BCB7B8" stroke-width="0.310739" stroke-linecap="round" stroke-linejoin="round"/>
<path d="M0.155273 90.5806L0.155273 89.9147L76.3529 133.929" stroke="#BCB7B8" stroke-width="0.310739" stroke-linecap="round" stroke-linejoin="round"/>
<path d="M0.732359 89.5816L0.155273 89.9146" stroke="#BCB7B8" stroke-width="0.310739" stroke-linecap="round" stroke-linejoin="round"/>
<path d="M228.77 45.9229L228.193 45.5899" stroke="#BCB7B8" stroke-width="0.310739" stroke-linecap="round" stroke-linejoin="round"/>
<path d="M0.155273 131.265L76.3529 175.257L228.77 87.2511V86.5852" stroke="#BCB7B8" stroke-width="0.310739" stroke-linecap="round" stroke-linejoin="round"/>
<path d="M76.3525 175.257V174.591" stroke="#BCB7B8" stroke-width="0.310739" stroke-linecap="round" stroke-linejoin="round"/>
<path d="M0.155273 131.265L0.155273 130.599" stroke="#BCB7B8" stroke-width="0.310739" stroke-linecap="round" stroke-linejoin="round"/>
<path d="M7.21338 167.666L7.25777 167.688" stroke="#BCB7B8" stroke-width="0.310739" stroke-linecap="round" stroke-linejoin="round"/>
<path d="M7.41301 167.599V167.533L7.39082 167.488L7.36862 167.422L7.32423 167.377L7.30203 167.333L7.25764 167.289L7.21325 167.266H7.16886L7.12447 167.289L7.10227 167.311L7.08008 167.333V167.4V167.444L7.10227 167.511L7.12447 167.555L7.16886 167.622L7.21325 167.666" stroke="#BCB7B8" stroke-width="0.310739" stroke-linecap="round" stroke-linejoin="round"/>
<path d="M7.25781 167.688L7.3022 167.71H7.3244H7.36879L7.39099 167.688L7.41318 167.644V167.599" stroke="#BCB7B8" stroke-width="0.310739" stroke-linecap="round" stroke-linejoin="round"/>
<path d="M27.7446 179.518L27.789 179.541" stroke="#BCB7B8" stroke-width="0.310739" stroke-linecap="round" stroke-linejoin="round"/>
<path d="M27.922 179.43V179.363L27.8998 179.319L27.8776 179.252L27.8332 179.208L27.7888 179.163L27.7445 179.119L27.7001 179.097H27.6557L27.6113 179.119L27.5891 179.141L27.5669 179.186V179.23V179.274L27.5891 179.341L27.6113 179.385L27.6557 179.452L27.7001 179.496L27.7445 179.519" stroke="#BCB7B8" stroke-width="0.310739" stroke-linecap="round" stroke-linejoin="round"/>
<path d="M27.7886 179.541H27.833H27.8774L27.8996 179.518L27.9217 179.474V179.43" stroke="#BCB7B8" stroke-width="0.310739" stroke-linecap="round" stroke-linejoin="round"/>
<path d="M76.9302 154.593L135.194 120.944" stroke="#BCB7B8" stroke-width="0.310739" stroke-linecap="round" stroke-linejoin="round"/>
<path d="M76.9302 153.927L152.24 110.445" stroke="#BCB7B8" stroke-width="0.310739" stroke-linecap="round" stroke-linejoin="round"/>
<path d="M228.193 66.5869V46.9216" stroke="#BCB7B8" stroke-width="0.310739" stroke-linecap="round" stroke-linejoin="round"/>
<path d="M76.9302 174.258V154.593" stroke="#BCB7B8" stroke-width="0.310739" stroke-linecap="round" stroke-linejoin="round"/>
<path d="M6.50287 113.93L5.92578 113.597" stroke="#BCB7B8" stroke-width="0.310739" stroke-linecap="round" stroke-linejoin="round"/>
<path d="M35.9345 130.932L35.3574 130.599" stroke="#BCB7B8" stroke-width="0.310739" stroke-linecap="round" stroke-linejoin="round"/>
<path d="M228.77 45.2569L228.193 45.5899L76.3529 133.263L0.732359 89.5817L0.155273 89.2487" stroke="#BCB7B8" stroke-width="0.310739" stroke-linecap="round" stroke-linejoin="round"/>
<path d="M1.66455 87.2734L152.573 0.155505" stroke="#BCB7B8" stroke-width="0.310739" stroke-linecap="round" stroke-linejoin="round"/>
<path d="M135.194 120.944L152.24 111.112" stroke="#BCB7B8" stroke-width="0.310739" stroke-linecap="round" stroke-linejoin="round"/>
<path d="M152.906 110.068L228.193 66.5871" stroke="#BCB7B8" stroke-width="0.310739" stroke-linecap="round" stroke-linejoin="round"/>
<path d="M228.193 86.9185V67.2531" stroke="#BCB7B8" stroke-width="0.310739" stroke-linecap="round" stroke-linejoin="round"/>
<path d="M76.9302 153.927V134.261" stroke="#BCB7B8" stroke-width="0.310739" stroke-linecap="round" stroke-linejoin="round"/>
<path d="M211.169 56.7544L228.194 46.9217" stroke="#BCB7B8" stroke-width="0.310739" stroke-linecap="round" stroke-linejoin="round"/>
<path d="M76.9302 174.258L152.24 130.777" stroke="#BCB7B8" stroke-width="0.310739" stroke-linecap="round" stroke-linejoin="round"/>
<path d="M76.9302 134.262L135.194 100.613" stroke="#BCB7B8" stroke-width="0.310739" stroke-linecap="round" stroke-linejoin="round"/>
<path d="M152.906 110.734L211.169 77.0853L228.193 67.2526" stroke="#BCB7B8" stroke-width="0.310739" stroke-linecap="round" stroke-linejoin="round"/>
<path d="M135.194 100.613L152.24 90.7801" stroke="#BCB7B8" stroke-width="0.310739" stroke-linecap="round" stroke-linejoin="round"/>
<path d="M152.906 130.399L228.193 86.9181" stroke="#BCB7B8" stroke-width="0.310739" stroke-linecap="round" stroke-linejoin="round"/>
<path d="M152.906 90.4028L211.169 56.7542" stroke="#BCB7B8" stroke-width="0.310739" stroke-linecap="round" stroke-linejoin="round"/>
<path d="M152.24 110.445L135.194 100.613" stroke="#BCB7B8" stroke-width="0.310739" stroke-linecap="round" stroke-linejoin="round"/>
<path d="M152.24 130.777L135.194 120.944" stroke="#BCB7B8" stroke-width="0.310739" stroke-linecap="round" stroke-linejoin="round"/>
<path d="M211.169 77.0858L228.194 86.9185" stroke="#BCB7B8" stroke-width="0.310739" stroke-linecap="round" stroke-linejoin="round"/>
<path d="M152.573 0.155578L227.261 43.2817" stroke="#BCB7B8" stroke-width="0.310739" stroke-linecap="round" stroke-linejoin="round"/>
<path d="M76.3525 127.914V133.263" stroke="#BCB7B8" stroke-width="0.310739" stroke-linecap="round" stroke-linejoin="round"/>
<path d="M152.573 0.155354V1.26514" stroke="#BCB7B8" stroke-width="0.310739" stroke-linecap="round" stroke-linejoin="round"/>
</svg>
