<svg width="169" height="282" viewBox="0 0 169 282" fill="none" xmlns="http://www.w3.org/2000/svg">
<path d="M122.79 169.08V166.35" stroke="#BCB7B8" stroke-width="0.84" stroke-linecap="round" stroke-linejoin="round"/>
<path d="M2.79004 199.8V197.07" stroke="#BCB7B8" stroke-width="0.84" stroke-linecap="round" stroke-linejoin="round"/>
<path d="M122.79 205.44V169.08" stroke="#BCB7B8" stroke-width="0.84" stroke-linecap="round" stroke-linejoin="round"/>
<path d="M105.9 14.1002L105.9 156.6L122.79 166.35" stroke="#BCB7B8" stroke-width="0.84" stroke-linecap="round" stroke-linejoin="round"/>
<path d="M36 179.01L73.68 157.26V63.3899" stroke="#BCB7B8" stroke-width="0.84" stroke-linecap="round" stroke-linejoin="round"/>
<path d="M89.2197 54.3901V166.23L73.6797 157.26" stroke="#BCB7B8" stroke-width="0.84" stroke-linecap="round" stroke-linejoin="round"/>
<path d="M89.2197 166.23L105.9 156.6" stroke="#BCB7B8" stroke-width="0.84" stroke-linecap="round" stroke-linejoin="round"/>
<path d="M122.79 166.35L36.2098 216.36L19.3198 206.61L35.9998 196.98" stroke="#BCB7B8" stroke-width="0.84" stroke-linecap="round" stroke-linejoin="round"/>
<path d="M19.5 44.9399L2.79004 54.5699L2.79004 197.07" stroke="#BCB7B8" stroke-width="0.84" stroke-linecap="round" stroke-linejoin="round"/>
<path d="M36.21 219.06V255.42" stroke="#BCB7B8" stroke-width="0.84" stroke-linecap="round" stroke-linejoin="round"/>
<path d="M33.7498 114.39L21.5698 121.41" stroke="#BCB7B8" stroke-width="0.84" stroke-linecap="round" stroke-linejoin="round"/>
<path d="M21.5698 104.67L33.7498 111.69L21.5698 118.71" stroke="#BCB7B8" stroke-width="0.84" stroke-linecap="round" stroke-linejoin="round"/>
<path d="M33.75 142.35V114.39" stroke="#BCB7B8" stroke-width="0.84" stroke-linecap="round" stroke-linejoin="round"/>
<path d="M33.7498 83.7301L21.5698 90.7501" stroke="#BCB7B8" stroke-width="0.84" stroke-linecap="round" stroke-linejoin="round"/>
<path d="M21.5698 135.33L33.7498 142.35" stroke="#BCB7B8" stroke-width="0.84" stroke-linecap="round" stroke-linejoin="round"/>
<path d="M36.21 255.42L52.89 245.79V209.43L36.21 219.06" stroke="#BCB7B8" stroke-width="0.84" stroke-linecap="round" stroke-linejoin="round"/>
<path d="M36.21 219.06L2.79004 199.8L2.79004 236.16L36.21 255.42" stroke="#BCB7B8" stroke-width="0.84" stroke-linecap="round" stroke-linejoin="round"/>
<path d="M33.7498 111.69V86.4301L21.5698 93.4501" stroke="#BCB7B8" stroke-width="0.84" stroke-linecap="round" stroke-linejoin="round"/>
<path d="M103.65 102L91.4697 109.02" stroke="#BCB7B8" stroke-width="0.84" stroke-linecap="round" stroke-linejoin="round"/>
<path d="M103.65 71.3102V46.0802" stroke="#BCB7B8" stroke-width="0.84" stroke-linecap="round" stroke-linejoin="round"/>
<path d="M91.4697 122.94L103.65 129.96V155.19L91.4697 148.17" stroke="#BCB7B8" stroke-width="0.84" stroke-linecap="round" stroke-linejoin="round"/>
<path d="M91.4697 64.2902L103.65 71.3102" stroke="#BCB7B8" stroke-width="0.84" stroke-linecap="round" stroke-linejoin="round"/>
<path d="M103.65 43.3502V18.1202L91.4697 25.1402" stroke="#BCB7B8" stroke-width="0.84" stroke-linecap="round" stroke-linejoin="round"/>
<path d="M91.4697 162.21L103.65 155.19" stroke="#BCB7B8" stroke-width="0.84" stroke-linecap="round" stroke-linejoin="round"/>
<path d="M33.75 195.57V170.31" stroke="#BCB7B8" stroke-width="0.84" stroke-linecap="round" stroke-linejoin="round"/>
<path d="M33.7498 58.4699L21.5698 65.4899" stroke="#BCB7B8" stroke-width="0.84" stroke-linecap="round" stroke-linejoin="round"/>
<path d="M21.5698 202.59L33.7498 195.57" stroke="#BCB7B8" stroke-width="0.84" stroke-linecap="round" stroke-linejoin="round"/>
<path d="M19.32 206.61L2.79004 197.07" stroke="#BCB7B8" stroke-width="0.84" stroke-linecap="round" stroke-linejoin="round"/>
<path d="M106.11 215.07L122.79 205.44" stroke="#BCB7B8" stroke-width="0.84" stroke-linecap="round" stroke-linejoin="round"/>
<path d="M106.11 178.71L122.79 169.08" stroke="#BCB7B8" stroke-width="0.84" stroke-linecap="round" stroke-linejoin="round"/>
<path d="M33.7498 170.31L21.5698 177.33" stroke="#BCB7B8" stroke-width="0.84" stroke-linecap="round" stroke-linejoin="round"/>
<path d="M33.7498 195.57L21.5698 188.55" stroke="#BCB7B8" stroke-width="0.84" stroke-linecap="round" stroke-linejoin="round"/>
<path d="M33.7498 167.61L21.5698 174.63" stroke="#BCB7B8" stroke-width="0.84" stroke-linecap="round" stroke-linejoin="round"/>
<path d="M2.79004 54.57L19.32 64.08L19.32 206.61" stroke="#BCB7B8" stroke-width="0.84" stroke-linecap="round" stroke-linejoin="round"/>
<path d="M35.9998 54.4502L19.3198 64.0802" stroke="#BCB7B8" stroke-width="0.84" stroke-linecap="round" stroke-linejoin="round"/>
<path d="M21.5698 160.59L33.7498 167.61V142.35" stroke="#BCB7B8" stroke-width="0.84" stroke-linecap="round" stroke-linejoin="round"/>
<path d="M89.3997 4.56006L72.7197 14.1901" stroke="#BCB7B8" stroke-width="0.84" stroke-linecap="round" stroke-linejoin="round"/>
<path d="M103.65 71.3102L91.4697 78.3302" stroke="#BCB7B8" stroke-width="0.84" stroke-linecap="round" stroke-linejoin="round"/>
<path d="M91.4697 92.2502L103.65 99.2701V74.0401L91.4697 81.0602" stroke="#BCB7B8" stroke-width="0.84" stroke-linecap="round" stroke-linejoin="round"/>
<path d="M36.21 216.36V219.06" stroke="#BCB7B8" stroke-width="0.84" stroke-linecap="round" stroke-linejoin="round"/>
<path d="M105.9 14.1001L89.2197 23.7301" stroke="#BCB7B8" stroke-width="0.84" stroke-linecap="round" stroke-linejoin="round"/>
<path d="M103.65 99.2702L91.4697 106.29" stroke="#BCB7B8" stroke-width="0.84" stroke-linecap="round" stroke-linejoin="round"/>
<path d="M36 82.4103L89.22 51.6903" stroke="#BCB7B8" stroke-width="0.84" stroke-linecap="round" stroke-linejoin="round"/>
<path d="M89.2197 23.7303V26.4303" stroke="#BCB7B8" stroke-width="0.84" stroke-linecap="round" stroke-linejoin="round"/>
<path d="M103.65 129.96V102" stroke="#BCB7B8" stroke-width="0.84" stroke-linecap="round" stroke-linejoin="round"/>
<path d="M36 64.4703L73.68 42.7203" stroke="#BCB7B8" stroke-width="0.84" stroke-linecap="round" stroke-linejoin="round"/>
<path d="M106.11 178.71V215.07L74.6099 196.89" stroke="#BCB7B8" stroke-width="0.84" stroke-linecap="round" stroke-linejoin="round"/>
<path d="M91.4697 36.3302L103.65 43.3502L91.4697 50.3702" stroke="#BCB7B8" stroke-width="0.84" stroke-linecap="round" stroke-linejoin="round"/>
<path d="M103.65 46.0802L91.4697 53.1002" stroke="#BCB7B8" stroke-width="0.84" stroke-linecap="round" stroke-linejoin="round"/>
<path d="M21.5698 76.7101L33.7498 83.7301V58.4701" stroke="#BCB7B8" stroke-width="0.84" stroke-linecap="round" stroke-linejoin="round"/>
<path d="M89.2197 26.4301V51.6901" stroke="#BCB7B8" stroke-width="0.84" stroke-linecap="round" stroke-linejoin="round"/>
<path d="M73.6797 35.4301V42.7201L89.2197 51.6901" stroke="#BCB7B8" stroke-width="0.84" stroke-linecap="round" stroke-linejoin="round"/>
<path d="M167.79 44.3103V228.66" stroke="#BCB7B8" stroke-width="0.84" stroke-linecap="round" stroke-linejoin="round"/>
<path d="M167.79 44.3102L91.7998 0.420166V5.94019" stroke="#BCB7B8" stroke-width="0.84" stroke-linecap="round" stroke-linejoin="round"/>
<path d="M91.7999 0.420013L0.419922 53.19L0.419922 237.51L76.4099 281.4" stroke="#BCB7B8" stroke-width="0.84" stroke-linecap="round" stroke-linejoin="round"/>
<path d="M2.78992 236.16L0.419922 237.51" stroke="#BCB7B8" stroke-width="0.84" stroke-linecap="round" stroke-linejoin="round"/>
<path d="M76.4097 281.4L78.8097 280.02" stroke="#BCB7B8" stroke-width="0.84" stroke-linecap="round" stroke-linejoin="round"/>
<path d="M122.79 205.44L165.42 230.04L167.79 228.66L165.42 227.28" stroke="#BCB7B8" stroke-width="0.84" stroke-linecap="round" stroke-linejoin="round"/>
<path d="M36 196.98V179.01L36 85.1401L73.68 63.3901L89.22 54.3901" stroke="#BCB7B8" stroke-width="0.84" stroke-linecap="round" stroke-linejoin="round"/>
<path d="M21.5698 121.41V135.33" stroke="#BCB7B8" stroke-width="0.84" stroke-linecap="round" stroke-linejoin="round"/>
<path d="M21.5698 93.4501V104.67V118.71" stroke="#BCB7B8" stroke-width="0.84" stroke-linecap="round" stroke-linejoin="round"/>
<path d="M91.4697 148.17V162.21" stroke="#BCB7B8" stroke-width="0.84" stroke-linecap="round" stroke-linejoin="round"/>
<path d="M91.4697 53.1002V64.2902V78.3302" stroke="#BCB7B8" stroke-width="0.84" stroke-linecap="round" stroke-linejoin="round"/>
<path d="M21.5698 65.4901V76.7101V90.7501" stroke="#BCB7B8" stroke-width="0.84" stroke-linecap="round" stroke-linejoin="round"/>
<path d="M21.5698 177.33V188.55V202.59" stroke="#BCB7B8" stroke-width="0.84" stroke-linecap="round" stroke-linejoin="round"/>
<path d="M52.8896 209.43L74.6096 196.89L106.11 178.71" stroke="#BCB7B8" stroke-width="0.84" stroke-linecap="round" stroke-linejoin="round"/>
<path d="M21.5698 160.59V174.63" stroke="#BCB7B8" stroke-width="0.84" stroke-linecap="round" stroke-linejoin="round"/>
<path d="M36 57.1803L73.68 35.4303L89.22 26.4303" stroke="#BCB7B8" stroke-width="0.84" stroke-linecap="round" stroke-linejoin="round"/>
<path d="M91.4697 81.0602V92.2502V106.29" stroke="#BCB7B8" stroke-width="0.84" stroke-linecap="round" stroke-linejoin="round"/>
<path d="M91.4697 109.02V122.94" stroke="#BCB7B8" stroke-width="0.84" stroke-linecap="round" stroke-linejoin="round"/>
<path d="M89.3999 4.56021L91.7999 5.94022L105.9 14.1002" stroke="#BCB7B8" stroke-width="0.84" stroke-linecap="round" stroke-linejoin="round"/>
<path d="M36 54.4503L86.88 25.0803" stroke="#BCB7B8" stroke-width="0.84" stroke-linecap="round" stroke-linejoin="round"/>
<path d="M36 82.4103V64.4703V57.1803" stroke="#BCB7B8" stroke-width="0.84" stroke-linecap="round" stroke-linejoin="round"/>
<path d="M91.4697 25.1402V36.3302V50.3702" stroke="#BCB7B8" stroke-width="0.84" stroke-linecap="round" stroke-linejoin="round"/>
<path d="M165.42 230.04V227.28V48.4502L105.9 14.1002" stroke="#BCB7B8" stroke-width="0.84" stroke-linecap="round" stroke-linejoin="round"/>
<path d="M36.21 255.42L78.81 280.02" stroke="#BCB7B8" stroke-width="0.84" stroke-linecap="round" stroke-linejoin="round"/>
<path d="M86.8799 25.0802L89.1299 23.7902L89.2199 23.7302" stroke="#BCB7B8" stroke-width="0.84" stroke-linecap="round" stroke-linejoin="round"/>
<path d="M72.72 14.1901L19.5 44.9401" stroke="#BCB7B8" stroke-width="0.84" stroke-linecap="round" stroke-linejoin="round"/>
<path d="M21.5698 135.33V160.59" stroke="#BCB7B8" stroke-width="0.84" stroke-linecap="round" stroke-linejoin="round"/>
<path d="M91.4697 148.17V122.94" stroke="#BCB7B8" stroke-width="0.84" stroke-linecap="round" stroke-linejoin="round"/>
<path d="M0.419922 53.1902L76.4099 97.0802L167.79 44.3102" stroke="#BCB7B8" stroke-width="0.84" stroke-linecap="round" stroke-linejoin="round"/>
<path d="M76.4097 97.08L76.4097 281.4" stroke="#BCB7B8" stroke-width="0.84" stroke-linecap="round" stroke-linejoin="round"/>
<path d="M165.42 48.4501L78.8101 98.4301L78.8101 280.02" stroke="#BCB7B8" stroke-width="0.84" stroke-linecap="round" stroke-linejoin="round"/>
<path d="M2.79004 54.5703L78.81 98.4303" stroke="#BCB7B8" stroke-width="0.84" stroke-linecap="round" stroke-linejoin="round"/>
</svg>
